{
    "asset" : {
        "generator" : "Khronos glTF Blender I/O v3.2.40",
        "version" : "2.0"
    },
    "scene" : 0,
    "scenes" : [
        {
            "name" : "Scene",
            "nodes" : [
                0,
                1
            ]
        }
    ],
    "nodes" : [
        {
            "name" : "Empty",
            "rotation" : [
                0.5,
                -0.5,
                -0.5,
                0.5
            ],
            "translation" : [
                0,
                4.4380598068237305,
                -1.2845946550369263
            ]
        },
        {
            "mesh" : 0,
            "name" : "Plane",
            "rotation" : [
                0.2661623954772949,
                0,
                0,
                0.96392822265625
            ],
            "scale" : [
                0.08422702550888062,
                0.08188620954751968,
                0.08392433822154999
            ],
            "translation" : [
                -0.036986395716667175,
                -0.025365039706230164,
                1.5885543823242188
            ]
        }
    ],
    "materials" : [
        {
            "doubleSided" : true,
            "name" : "Material",
            "pbrMetallicRoughness" : {
                "baseColorFactor" : [
                    0.8000000715255737,
                    0.0020927090663462877,
                    0,
                    1
                ],
                "metallicFactor" : 0,
                "roughnessFactor" : 0.5
            }
        }
    ],
    "meshes" : [
        {
            "name" : "Plane",
            "primitives" : [
                {
                    "attributes" : {
                        "POSITION" : 0,
                        "NORMAL" : 1,
                        "TEXCOORD_0" : 2
                    },
                    "indices" : 3,
                    "material" : 0
                }
            ]
        }
    ],
    "accessors" : [
        {
            "bufferView" : 0,
            "componentType" : 5126,
            "count" : 2768,
            "max" : [
                0,
                21.048898696899414,
                0.21229499578475952
            ],
            "min" : [
                -17.231592178344727,
                -19.81562042236328,
                -27.713363647460938
            ],
            "type" : "VEC3"
        },
        {
            "bufferView" : 1,
            "componentType" : 5126,
            "count" : 2768,
            "type" : "VEC3"
        },
        {
            "bufferView" : 2,
            "componentType" : 5126,
            "count" : 2768,
            "type" : "VEC2"
        },
        {
            "bufferView" : 3,
            "componentType" : 5123,
            "count" : 4152,
            "type" : "SCALAR"
        }
    ],
    "bufferViews" : [
        {
            "buffer" : 0,
            "byteLength" : 33216,
            "byteOffset" : 0
        },
        {
            "buffer" : 0,
            "byteLength" : 33216,
            "byteOffset" : 33216
        },
        {
            "buffer" : 0,
            "byteLength" : 22144,
            "byteOffset" : 66432
        },
        {
            "buffer" : 0,
            "byteLength" : 8304,
            "byteOffset" : 88576
        }
    ],
    "buffers" : [
        {
            "byteLength" : 96880,
            "uri" : "data:application/octet-stream;base64,"
        }
    ]
}
