{
    "asset" : {
        "generator" : "Khronos glTF Blender I/O v3.2.40",
        "version" : "2.0"
    },
    "scene" : 0,
    "scenes" : [
        {
            "name" : "Scene",
            "nodes" : [
                0
            ]
        }
    ],
    "nodes" : [
        {
            "mesh" : 0,
            "name" : "Plane",
            "rotation" : [
                -0.44261765480041504,
                0,
                0,
                0.8967104554176331
            ],
            "scale" : [
                0.10298120975494385,
                0.10261113941669464,
                0.10011918097734451
            ],
            "translation" : [
                -0.036986395716667175,
                1.7455575466156006,
                -0.9634021520614624
            ]
        }
    ],
    "materials" : [
        {
            "doubleSided" : true,
            "name" : "Material",
            "pbrMetallicRoughness" : {
                "baseColorFactor" : [
                    0.29569271206855774,
                    0,
                    0.00037935341242700815,
                    1
                ],
                "metallicFactor" : 0,
                "roughnessFactor" : 0.5
            }
        }
    ],
    "meshes" : [
        {
            "name" : "Plane",
            "primitives" : [
                {
                    "attributes" : {
                        "POSITION" : 0,
                        "NORMAL" : 1,
                        "TEXCOORD_0" : 2
                    },
                    "indices" : 3,
                    "material" : 0
                }
            ]
        }
    ],
    "accessors" : [
        {
            "bufferView" : 0,
            "componentType" : 5126,
            "count" : 5536,
            "max" : [
                17.231592178344727,
                0.21229499578475952,
                19.81562042236328
            ],
            "min" : [
                -17.231592178344727,
                -27.713363647460938,
                -21.048898696899414
            ],
            "type" : "VEC3"
        },
        {
            "bufferView" : 1,
            "componentType" : 5126,
            "count" : 5536,
            "type" : "VEC3"
        },
        {
            "bufferView" : 2,
            "componentType" : 5126,
            "count" : 5536,
            "type" : "VEC2"
        },
        {
            "bufferView" : 3,
            "componentType" : 5123,
            "count" : 8304,
            "type" : "SCALAR"
        }
    ],
    "bufferViews" : [
        {
            "buffer" : 0,
            "byteLength" : 66432,
            "byteOffset" : 0
        },
        {
            "buffer" : 0,
            "byteLength" : 66432,
            "byteOffset" : 66432
        },
        {
            "buffer" : 0,
            "byteLength" : 44288,
            "byteOffset" : 132864
        },
        {
            "buffer" : 0,
            "byteLength" : 16608,
            "byteOffset" : 177152
        }
    ],
    "buffers" : [
        {
            "byteLength" : 193760,
            "uri" : "data:application/octet-stream;base64,"
        }
    ]
}
